<svg id="Layer_1" data-name="Layer 1" xmlns="http://www.w3.org/2000/svg" viewBox="0 0 36.79 20.07"><defs><style>.cls-1{fill:#625df7;}</style></defs><title>dashboard</title><path class="cls-1" d="M1551.9,1519.14a3.36,3.36,0,0,1-3.35,3.35,2.65,2.65,0,0,1-.85-.12l-6,5.94a3.1,3.1,0,0,1,.11.87,3.35,3.35,0,0,1-6.69,0,3.1,3.1,0,0,1,.12-.87L1531,1524a3.18,3.18,0,0,1-1.73,0l-7.61,7.63a3,3,0,0,1,.11.85,3.35,3.35,0,1,1-3.34-3.34,2.65,2.65,0,0,1,.85.12l7.63-7.61a2.77,2.77,0,0,1-.12-.87,3.35,3.35,0,1,1,6.69,0,2.77,2.77,0,0,1-.12.87l4.27,4.26a3.21,3.21,0,0,1,1.74,0l5.93-6a3,3,0,0,1-.11-.86,3.35,3.35,0,0,1,6.69,0Z" transform="translate(-1515.1 -1515.8)"/></svg>