<svg id="Layer_1" data-name="Layer 1" xmlns="http://www.w3.org/2000/svg" viewBox="0 0 12.41 12.41"><defs><style>.cls-1{fill:#5184a5;}</style></defs><title>g_edit</title><path class="cls-1" d="M597.76,673.18h-1.18c-.09,0-.12,0-.12-.12v-2.37a.21.21,0,0,1,.07-.16l7.48-7.48c.06-.06.09-.06.15,0l2.43,2.44c.06.06.06.08,0,.14l-7.49,7.49a.18.18,0,0,1-.16.06Z" transform="translate(-596.46 -660.78)"/><path class="cls-1" d="M608.86,663.08a.66.66,0,0,1-.2.48c-.39.4-.79.79-1.18,1.18-.06.07-.1.07-.16,0l-2.42-2.42c-.06-.06-.07-.09,0-.16l1.19-1.18a.66.66,0,0,1,.94,0c.55.54,1.1,1.09,1.64,1.64A.64.64,0,0,1,608.86,663.08Z" transform="translate(-596.46 -660.78)"/></svg>